<?xml version="1.0" standalone="no"?>
<!DOCTYPE svg PUBLIC "-//W3C//DTD SVG 20010904//EN"
 "http://www.w3.org/TR/2001/REC-SVG-20010904/DTD/svg10.dtd">
<svg version="1.0" xmlns="http://www.w3.org/2000/svg"
 width="500.000000pt" height="500.000000pt" viewBox="0 0 500.000000 500.000000"
 preserveAspectRatio="xMidYMid meet">

<g transform="translate(0.000000,500.000000) scale(0.100000,-0.100000)"
fill="#000000" stroke="none">
<path d="M910 2210 l0 -1580 1590 0 1590 0 0 1580 0 1580 -1590 0 -1590 0 0
-1580z m3090 5 l0 -1495 -1505 0 -1505 0 0 1495 0 1495 1505 0 1505 0 0 -1495z"/>
<path d="M1130 2185 l0 -1375 1370 0 1370 0 0 1375 0 1375 -1370 0 -1370 0 0
-1375z m2658 -2 l-3 -1288 -1287 -3 -1288 -2 0 1290 0 1290 1290 0 1290 0 -2
-1287z"/>
<path d="M2160 3349 c0 -13 16 -17 85 -21 98 -7 141 -27 167 -78 16 -31 18
-68 18 -307 l0 -273 105 0 105 0 0 278 c0 244 2 281 18 312 21 44 72 70 135
70 38 0 47 3 47 18 0 16 -23 17 -340 17 -306 0 -340 -2 -340 -16z"/>
<path d="M2363 2550 c-15 -56 -18 -60 -47 -61 -17 -1 -42 -5 -56 -9 -19 -6
-11 -8 33 -9 l57 -1 0 -34 c0 -28 -7 -40 -33 -60 -55 -42 -88 -43 -130 -6 -35
30 -37 31 -66 15 -30 -15 -31 -15 -31 6 0 11 -3 19 -7 17 -107 -55 -155 -61
-161 -20 -2 15 -9 22 -17 18 -8 -3 -15 -1 -17 4 -2 5 -21 0 -42 -10 -31 -14
-46 -16 -69 -7 -22 7 -35 7 -48 -2 -16 -10 -19 -8 -20 11 -1 16 -4 12 -9 -12
-5 -20 -25 -62 -44 -95 -40 -65 -48 -119 -18 -113 11 2 25 27 42 78 14 41 33
87 43 102 16 24 21 25 48 16 16 -5 40 -7 53 -4 18 4 23 2 22 -10 -2 -26 30
-41 54 -26 11 6 39 12 63 12 23 0 58 9 78 19 l35 19 -4 -31 -5 -31 32 27 c40
34 51 34 82 1 20 -22 30 -25 66 -21 22 2 55 14 73 27 17 12 33 21 34 19 2 -2
8 -14 15 -26 18 -35 64 -39 120 -9 39 20 50 22 54 12 15 -39 122 -43 202 -7
39 17 40 17 57 -3 23 -30 134 -29 201 1 l47 22 0 -26 0 -27 28 27 c34 33 49
34 78 6 18 -17 30 -20 56 -15 38 7 98 41 98 56 0 5 -16 -2 -36 -15 -46 -31
-90 -32 -121 -3 -23 22 -25 22 -54 6 -39 -23 -38 -7 5 63 46 77 63 126 49 140
-23 23 -42 -1 -69 -88 -15 -48 -34 -96 -42 -105 -26 -30 -93 -49 -162 -46 -61
3 -65 4 -65 27 0 15 11 32 28 45 28 21 29 21 43 2 7 -11 17 -17 20 -13 10 10
-16 37 -35 37 -10 0 -33 -12 -52 -26 -80 -61 -185 -90 -243 -68 -22 9 -20 34
3 34 29 0 63 32 52 49 -12 19 -40 7 -106 -43 -26 -20 -57 -39 -71 -42 -64 -16
-102 29 -79 96 12 34 13 35 73 38 36 2 62 7 62 14 0 7 -19 9 -56 5 -54 -6 -56
-5 -50 16 3 12 9 39 12 60 6 33 4 37 -15 37 -17 0 -24 -11 -38 -60z m23 -31
c-14 -32 -14 -33 -15 -8 -1 14 5 41 11 60 13 33 13 33 16 8 2 -15 -4 -42 -12
-60z m730 -24 c-25 -55 -43 -74 -31 -32 18 57 50 121 53 105 2 -10 -8 -43 -22
-73z m-749 -37 c-3 -8 -6 -5 -6 6 -1 11 2 17 5 13 3 -3 4 -12 1 -19z m239 -53
c-23 -17 -36 -19 -36 -6 0 11 18 19 40 20 11 0 10 -3 -4 -14z m-714 -30 c6
-28 -8 -43 -24 -27 -11 11 -2 52 12 52 4 0 10 -11 12 -25z m-233 -134 c-7 -23
-16 -41 -21 -41 -11 0 -10 3 8 50 21 51 29 45 13 -9z"/>
<path d="M1690 2445 c-8 -9 -8 -15 -2 -15 12 0 26 19 19 26 -2 2 -10 -2 -17
-11z"/>
<path d="M2430 1743 c0 -470 -8 -573 -49 -670 -28 -63 -58 -92 -107 -103 -53
-12 -80 3 -130 75 -49 70 -85 95 -137 95 -87 0 -129 -104 -69 -170 49 -54 174
-73 303 -46 170 36 288 144 352 323 39 108 47 204 47 585 l0 348 -105 0 -105
0 0 -437z"/>
</g>
</svg>
